<svg width="998" height="989" viewBox="0 0 998 989" fill="none" xmlns="http://www.w3.org/2000/svg">
<path fill-rule="evenodd" clip-rule="evenodd" d="M50 174V760H341C354.807 760 366 771.193 366 785C366 798.807 354.807 810 341 810H45C20.1472 810 0 789.853 0 765V169C0 144.147 20.1472 124 45 124H953C977.853 124 998 144.147 998 169V765C998 789.853 977.853 810 953 810H657C643.193 810 632 798.807 632 785C632 771.193 643.193 760 657 760H948V174H50Z" fill="black"/>
<path d="M596.042 309.994C602.334 300.005 595.155 287 583.35 287H415.628C403.824 287 396.645 300.005 402.936 309.994L463.751 406.552L358.695 624.533C345.604 651.696 345.468 683.315 358.325 710.589L485.432 980.218C490.84 991.69 507.16 991.69 512.568 980.218L639.736 710.458C652.558 683.259 652.46 651.734 639.47 624.615L535.104 406.747L596.042 309.994Z" fill="#009ACB"/>
<path fill-rule="evenodd" clip-rule="evenodd" d="M362 50V145C362 158.807 350.807 170 337 170C323.193 170 312 158.807 312 145V45C312 20.1472 332.147 0 357 0H640C664.853 0 685 20.1472 685 45V145C685 158.807 673.807 170 660 170C646.193 170 635 158.807 635 145V50H362Z" fill="black"/>
<path fill-rule="evenodd" clip-rule="evenodd" d="M107.26 205.012C111.119 194.663 122.638 189.401 132.987 193.26L368.987 281.26C379.337 285.12 384.598 296.638 380.739 306.988C376.88 317.337 365.362 322.599 355.012 318.74L119.012 230.74C108.662 226.88 103.401 215.362 107.26 205.012Z" fill="black"/>
<path fill-rule="evenodd" clip-rule="evenodd" d="M890.739 205.012C886.88 194.663 875.361 189.401 865.012 193.26L629.012 281.26C618.662 285.12 613.401 296.638 617.26 306.988C621.119 317.337 632.638 322.599 642.987 318.74L878.987 230.74C889.337 226.88 894.598 215.362 890.739 205.012Z" fill="black"/>
</svg>
